<?xml version="1.0" standalone="no"?>
<!DOCTYPE svg PUBLIC "-//W3C//DTD SVG 20010904//EN"
 "http://www.w3.org/TR/2001/REC-SVG-20010904/DTD/svg10.dtd">
<svg version="1.0" xmlns="http://www.w3.org/2000/svg"
 width="225.000000pt" height="225.000000pt" viewBox="0 0 225.000000 225.000000"
 preserveAspectRatio="xMidYMid meet">

<g transform="translate(0.000000,225.000000) scale(0.100000,-0.100000)"
fill="#000000" stroke="none">
<path d="M1038 2240 c-113 -19 -242 -103 -307 -200 -126 -190 -104 -442 54
-602 58 -59 61 -95 10 -142 -25 -24 -35 -42 -35 -64 0 -27 -12 -41 -93 -106
l-93 -75 -21 -177 c-12 -98 -20 -180 -18 -182 2 -2 78 24 170 58 91 34 167 61
169 59 1 -2 10 -25 20 -51 33 -90 132 -217 213 -273 21 -15 25 -12 89 47 73
69 133 153 160 226 10 26 19 49 20 51 2 2 78 -25 169 -59 92 -34 168 -60 170
-58 2 2 -6 84 -18 182 l-21 177 -93 75 c-81 65 -93 79 -93 106 0 22 -10 40
-35 64 -53 49 -49 82 19 155 86 93 125 192 126 319 0 184 -99 344 -264 425
-100 49 -190 63 -298 45z m161 -70 c123 -23 236 -111 294 -229 30 -61 32 -72
32 -171 0 -99 -2 -110 -32 -171 -21 -41 -53 -85 -88 -118 -52 -50 -55 -55 -55
-102 l0 -49 -40 0 -40 0 0 185 0 185 39 0 c115 0 149 155 46 204 -32 16 -44
17 -77 7 -46 -14 -78 -59 -78 -108 l0 -33 -75 0 -75 0 0 33 c0 83 -81 136
-154 102 -105 -50 -71 -205 45 -205 l39 0 0 -185 0 -185 -40 0 -40 0 0 49 c0
47 -3 52 -55 102 -35 33 -67 77 -88 118 -30 61 -32 72 -32 171 0 99 2 109 33
173 84 170 261 261 441 227z m-235 -336 c9 -8 16 -26 16 -40 0 -20 -5 -24 -28
-24 -30 0 -52 16 -52 36 0 14 27 44 40 44 5 0 16 -7 24 -16z m370 0 c31 -30
12 -64 -36 -64 -23 0 -28 4 -28 24 0 24 23 56 40 56 5 0 16 -7 24 -16z m-134
-319 l0 -185 -75 0 -75 0 0 185 0 185 75 0 75 0 0 -185z m201 -265 c21 -12 25
-40 7 -58 -17 -17 -549 -17 -566 0 -17 17 -15 45 6 57 23 14 527 14 553 1z
m-599 -170 c-2 -28 0 -55 6 -63 8 -9 7 -24 -2 -52 -9 -26 -11 -48 -5 -69 5
-16 8 -30 6 -31 -14 -12 -179 -66 -184 -62 -3 4 -1 53 6 109 10 83 16 104 34
119 12 9 45 35 72 57 28 23 55 41 61 42 7 0 9 -17 6 -50z m732 -7 c39 -31 72
-57 73 -57 5 -3 25 -207 20 -212 -3 -4 -46 8 -95 26 l-89 33 5 47 c2 26 -1 57
-8 69 -9 17 -9 26 1 37 7 9 10 33 7 64 -3 30 -1 50 5 50 5 0 42 -26 81 -57z
m-166 25 c17 -17 15 -55 -4 -62 -20 -8 -458 -8 -478 0 -19 7 -21 45 -4 62 17
17 469 17 486 0z m10 -166 c7 -50 -3 -52 -252 -52 -167 0 -235 3 -244 12 -13
13 -16 50 -5 62 4 3 117 5 252 4 l246 -3 3 -23z m-99 -169 c-23 -54 -73 -124
-121 -171 l-35 -33 -49 53 c-50 53 -93 118 -113 171 l-11 27 175 0 174 0 -20
-47z"/>
<path d="M500 405 l0 -185 35 0 35 0 0 185 0 185 -35 0 -35 0 0 -185z"/>
<path d="M1680 425 l0 -165 35 0 35 0 0 165 0 165 -35 0 -35 0 0 -165z"/>
<path d="M650 315 l0 -235 35 0 35 0 0 235 0 235 -35 0 -35 0 0 -235z"/>
<path d="M1530 350 l0 -200 35 0 35 0 0 200 0 200 -35 0 -35 0 0 -200z"/>
<path d="M1680 130 l0 -50 35 0 35 0 0 50 0 50 -35 0 -35 0 0 -50z"/>
<path d="M500 115 c0 -33 2 -35 35 -35 33 0 35 2 35 35 0 33 -2 35 -35 35 -33
0 -35 -2 -35 -35z"/>
<path d="M1530 35 c0 -33 2 -35 35 -35 33 0 35 2 35 35 0 33 -2 35 -35 35 -33
0 -35 -2 -35 -35z"/>
</g>
</svg>
